<svg width="84" height="84" viewBox="0 0 84 84" fill="none" xmlns="http://www.w3.org/2000/svg">
<g id="vuesax/bulk/bag-happy">
<g id="bag-happy">
<path id="Vector" opacity="0.4" d="M67.34 19.53H65.94L54.11 7.70002C53.165 6.75502 51.625 6.75502 50.645 7.70002C49.7 8.64502 49.7 10.185 50.645 11.165L59.01 19.53H24.99L33.355 11.165C34.3 10.22 34.3 8.68002 33.355 7.70002C32.41 6.75502 30.87 6.75502 29.89 7.70002L18.095 19.53H16.695C13.545 19.53 7 19.53 7 28.49C7 31.885 7.7 34.125 9.17 35.595C10.01 36.47 11.025 36.925 12.11 37.17C13.125 37.415 14.21 37.45 15.26 37.45H68.74C69.825 37.45 70.84 37.38 71.82 37.17C74.76 36.47 77 34.37 77 28.49C77 19.53 70.455 19.53 67.34 19.53Z" fill="#292D32"/>
<path id="Vector_2" d="M68.7744 37.45H15.2594C14.2444 37.45 13.1244 37.415 12.1094 37.135L16.5194 64.05C17.4994 70.07 20.1244 77 31.7794 77H51.4144C63.2094 77 65.3094 71.085 66.5694 64.47L71.8544 37.135C70.8744 37.38 69.8244 37.45 68.7744 37.45ZM41.9994 64.75C33.8094 64.75 27.1244 58.065 27.1244 49.875C27.1244 48.44 28.3144 47.25 29.7494 47.25C31.1844 47.25 32.3744 48.44 32.3744 49.875C32.3744 55.195 36.6794 59.5 41.9994 59.5C47.3194 59.5 51.6244 55.195 51.6244 49.875C51.6244 48.44 52.8144 47.25 54.2494 47.25C55.6844 47.25 56.8744 48.44 56.8744 49.875C56.8744 58.065 50.1894 64.75 41.9994 64.75Z" fill="#505050"/>
</g>
</g>
</svg>
