<svg width="80" height="80" viewBox="0 0 80 80" fill="none" xmlns="http://www.w3.org/2000/svg">
<g id="Group 1604">
<path id="Rectangle" d="M0 40C0 17.9086 17.9086 0 40 0C62.0914 0 80 17.9086 80 40C80 62.0914 62.0914 80 40 80C17.9086 80 0 62.0914 0 40Z" fill="#FA3434"/>
<g id="vuesax/bold/info-circle">
<g id="info-circle">
<path id="Vector" d="M40 19.959C28.98 19.959 20 28.8467 20 39.7535C20 50.6603 28.98 59.548 40 59.548C51.02 59.548 60 50.6603 60 39.7535C60 28.8467 51.02 19.959 40 19.959ZM38.5 31.8357C38.5 31.0241 39.18 30.3511 40 30.3511C40.82 30.3511 41.5 31.0241 41.5 31.8357V41.733C41.5 42.5445 40.82 43.2175 40 43.2175C39.18 43.2175 38.5 42.5445 38.5 41.733V31.8357ZM41.84 48.4235C41.74 48.6808 41.6 48.8788 41.42 49.0767C41.22 49.2549 41 49.3934 40.76 49.4924C40.52 49.5914 40.26 49.6508 40 49.6508C39.74 49.6508 39.48 49.5914 39.24 49.4924C39 49.3934 38.78 49.2549 38.58 49.0767C38.4 48.8788 38.26 48.6808 38.16 48.4235C38.06 48.186 38 47.9286 38 47.6713C38 47.414 38.06 47.1567 38.16 46.9191C38.26 46.6816 38.4 46.4638 38.58 46.2659C38.78 46.0878 39 45.9492 39.24 45.8502C39.72 45.6523 40.28 45.6523 40.76 45.8502C41 45.9492 41.22 46.0878 41.42 46.2659C41.6 46.4638 41.74 46.6816 41.84 46.9191C41.94 47.1567 42 47.414 42 47.6713C42 47.9286 41.94 48.186 41.84 48.4235Z" fill="white"/>
</g>
</g>
</g>
</svg>
