<svg width="48" height="48" viewBox="0 0 48 48" fill="none" xmlns="http://www.w3.org/2000/svg">
<g id="icon">
<circle id="Ellipse 16" cx="24" cy="24" r="24" fill="#DEE2E7"/>
<path id="&#240;&#159;&#148;&#185; Icon Color" fill-rule="evenodd" clip-rule="evenodd" d="M31.5 21H29V19C29 17.9 28.1 17 27 17H15C13.9 17 13 17.9 13 19V28C13 29.1 13.9 30 15 30C15 31.66 16.34 33 18 33C19.66 33 21 31.66 21 30H27C27 31.66 28.34 33 30 33C31.66 33 33 31.66 33 30H34C34.55 30 35 29.55 35 29V25.67C35 25.24 34.86 24.82 34.6 24.47L32.3 21.4C32.11 21.15 31.81 21 31.5 21ZM18 31C17.45 31 17 30.55 17 30C17 29.45 17.45 29 18 29C18.55 29 19 29.45 19 30C19 30.55 18.55 31 18 31ZM31.5 22.5L33.46 25H29V22.5H31.5ZM30 31C29.45 31 29 30.55 29 30C29 29.45 29.45 29 30 29C30.55 29 31 29.45 31 30C31 30.55 30.55 31 30 31Z" fill="#8B96A5"/>
</g>
</svg>
