<svg width="23" height="23" viewBox="0 0 23 23" fill="none" xmlns="http://www.w3.org/2000/svg">
<g id="vuesax/linear/document-copy">
<path id="Vector" d="M15.9574 12.6696V15.4088C15.9574 19.061 14.4965 20.5218 10.8443 20.5218H7.37476C3.72259 20.5218 2.26172 19.061 2.26172 15.4088V11.9392C2.26172 8.28704 3.72259 6.82617 7.37476 6.82617H10.1139" stroke="#8B96A5" stroke-linecap="round" stroke-linejoin="round"/>
<path id="Vector_2" d="M15.9568 12.6696H13.035C10.8437 12.6696 10.1133 11.9392 10.1133 9.74791V6.82617L15.9568 12.6696Z" stroke="#8B96A5" stroke-linecap="round" stroke-linejoin="round"/>
<path id="Vector_3" d="M11.0273 2.26099H14.6795" stroke="#8B96A5" stroke-linecap="round" stroke-linejoin="round"/>
<path id="Vector_4" d="M6.82617 5.00012C6.82617 3.48446 8.04965 2.26099 9.5653 2.26099H11.9575" stroke="#8B96A5" stroke-linecap="round" stroke-linejoin="round"/>
<path id="Vector_5" d="M20.5227 7.73901V13.3908C20.5227 14.806 19.3722 15.9564 17.957 15.9564" stroke="#8B96A5" stroke-linecap="round" stroke-linejoin="round"/>
<path id="Vector_6" d="M20.5232 7.73925H17.7841C15.7297 7.73925 15.0449 7.05446 15.0449 5.00012V2.26099L20.5232 7.73925Z" stroke="#8B96A5" stroke-linecap="round" stroke-linejoin="round"/>
</g>
</svg>
