<svg width="34" height="34" viewBox="0 0 34 34" fill="none" xmlns="http://www.w3.org/2000/svg">
<g id="Icon/link">
<path id="Vector" d="M16.07 9.83701L13.5769 12.965L15.1409 14.2116L17.634 11.0836C18.6624 9.7933 20.5596 9.57905 21.8499 10.6075C23.1401 11.6359 23.3544 13.533 22.326 14.8233L19.8328 17.9513L21.3968 19.1979L23.89 16.0699C25.6102 13.9116 25.2547 10.7638 23.0964 9.0435C20.9381 7.32322 17.7903 7.67872 16.07 9.83701ZM18.5862 19.5153L16.0931 22.6432C15.0647 23.9335 13.1675 24.1478 11.8772 23.1194C10.587 22.0909 10.3727 20.1938 11.4011 18.9035L13.8943 15.7755L12.3303 14.529L9.83715 17.6569C8.11687 19.8152 8.47237 22.9631 10.6307 24.6833C12.789 26.4036 15.9368 26.0481 17.6571 23.8898L20.1502 20.7619L18.5862 19.5153ZM13.5884 19.3681L18.5747 13.1122L20.1387 14.3587L15.1524 20.6147L13.5884 19.3681Z" fill="white"/>
</g>
</svg>
