<svg width="31" height="30" viewBox="0 0 31 30" fill="none" xmlns="http://www.w3.org/2000/svg">
<path d="M23.4124 13.4875V18.4875C23.4124 18.8125 23.3999 19.125 23.3624 19.425C23.0751 22.8 21.089 24.475 17.429 24.475H16.9293C16.6171 24.475 16.3172 24.625 16.1299 24.875L14.6309 26.875C13.9689 27.7625 12.8946 27.7625 12.2326 26.875L10.7336 24.875C10.5712 24.6625 10.209 24.475 9.93418 24.475H9.43454C5.4498 24.475 3.45117 23.4875 3.45117 18.4875V13.4875C3.45117 9.82501 5.13751 7.83751 8.49769 7.55001C8.79748 7.51251 9.10976 7.5 9.43454 7.5H17.429C21.4137 7.5 23.4124 9.50001 23.4124 13.4875Z" stroke="#8B96A5" stroke-width="1.5" stroke-miterlimit="10" stroke-linecap="round" stroke-linejoin="round"/>
<path d="M28.4082 8.48751V13.4875C28.4082 17.1625 26.7219 19.1375 23.3617 19.425C23.3992 19.125 23.4117 18.8125 23.4117 18.4875V13.4875C23.4117 9.50001 21.4131 7.5 17.4283 7.5H9.43392C9.10914 7.5 8.79686 7.51251 8.49707 7.55001C8.78437 4.18751 10.7705 2.5 14.4304 2.5H22.4249C26.4096 2.5 28.4082 4.50001 28.4082 8.48751Z" stroke="#8B96A5" stroke-width="1.5" stroke-miterlimit="10" stroke-linecap="round" stroke-linejoin="round"/>
<path d="M17.8104 16.5625H17.8216" stroke="#8B96A5" stroke-width="2" stroke-linecap="round" stroke-linejoin="round"/>
<path d="M13.4393 16.5625H13.4505" stroke="#8B96A5" stroke-width="2" stroke-linecap="round" stroke-linejoin="round"/>
<path d="M9.06719 16.5625H9.07844" stroke="#8B96A5" stroke-width="2" stroke-linecap="round" stroke-linejoin="round"/>
</svg>
