<svg width="40" height="40" viewBox="0 0 40 40" fill="none" xmlns="http://www.w3.org/2000/svg">
<g id="vuesax/bold/send-sqaure-2">
<g id="send-sqaure-2">
<path id="Vector" d="M28.38 0H11.62C4.34 0 0 4.34 0 11.62V28.36C0 35.66 4.34 40 11.62 40H28.36C35.64 40 39.98 35.66 39.98 28.38V11.62C40 4.34 35.66 0 28.38 0ZM13.28 21.62L22.04 12.86H17.18C16.36 12.86 15.68 12.18 15.68 11.36C15.68 10.54 16.36 9.86 17.18 9.86H25.66C25.86 9.86 26.04 9.9 26.24 9.98C26.6 10.14 26.9 10.42 27.06 10.8C27.14 10.98 27.18 11.18 27.18 11.38V19.86C27.18 20.68 26.5 21.36 25.68 21.36C24.86 21.36 24.18 20.68 24.18 19.86V15L15.4 23.74C15.1 24.04 14.72 24.18 14.34 24.18C13.96 24.18 13.58 24.04 13.28 23.74C12.7 23.16 12.7 22.2 13.28 21.62ZM32.48 30.44C28.46 31.78 24.24 32.46 20 32.46C15.76 32.46 11.54 31.78 7.52 30.44C6.74 30.18 6.32 29.32 6.58 28.54C6.84 27.76 7.68 27.32 8.48 27.6C15.92 30.08 24.1 30.08 31.54 27.6C32.32 27.34 33.18 27.76 33.44 28.54C33.68 29.34 33.26 30.18 32.48 30.44Z" fill="white"/>
</g>
</g>
</svg>
