<svg width="25" height="24" viewBox="0 0 25 24" fill="none" xmlns="http://www.w3.org/2000/svg">
<g id="vuesax/bulk/send-sqaure-2">
<g id="send-sqaure-2">
<path id="Vector" opacity="0.2" d="M17.1428 2H8.77864C5.14116 2 2.97266 4.17 2.97266 7.81V16.18C2.97266 19.82 5.14116 21.99 8.77864 21.99H17.1428C20.7803 21.99 22.9488 19.82 22.9488 16.18V7.81C22.9488 4.17 20.7803 2 17.1428 2Z" fill="#FA3434"/>
<g id="Group">
<path id="Vector_2" d="M10.1281 14.0899C10.3179 14.0899 10.5078 14.0199 10.6577 13.8699L15.0347 9.48992V11.9199C15.0347 12.3299 15.3744 12.6699 15.7841 12.6699C16.1939 12.6699 16.5336 12.3299 16.5336 11.9199V7.67992C16.5336 7.57992 16.5136 7.48992 16.4737 7.38992C16.3937 7.20992 16.2538 7.05993 16.0639 6.97993C15.974 6.93993 15.8741 6.91992 15.7741 6.91992H11.5371C11.1274 6.91992 10.7876 7.25992 10.7876 7.66992C10.7876 8.07992 11.1274 8.41992 11.5371 8.41992H13.9654L9.58844 12.7999C9.29864 13.0899 9.29864 13.5699 9.58844 13.8599C9.74833 14.0199 9.93819 14.0899 10.1281 14.0899Z" fill="#FA3434"/>
<path id="Vector_3" d="M19.6623 16.28C19.5324 15.89 19.1126 15.68 18.7129 15.81C14.9955 17.05 10.9083 17.05 7.19092 15.81C6.80119 15.68 6.37149 15.89 6.24158 16.28C6.11167 16.67 6.32152 17.1 6.71125 17.23C8.71986 17.9 10.8284 18.24 12.9469 18.24C15.0655 18.24 17.174 17.9 19.1826 17.23C19.5823 17.09 19.7922 16.67 19.6623 16.28Z" fill="#FA3434"/>
</g>
</g>
</g>
</svg>
