<svg width="38" height="40" viewBox="0 0 38 40" fill="none" xmlns="http://www.w3.org/2000/svg">
<g id="vuesax/bold/setting">
<g id="setting">
<path id="Vector" d="M32.8802 6.83988L22.5402 0.859883C20.5602 -0.280117 17.4602 -0.280117 15.4802 0.859883L5.04016 6.87988C0.900156 9.67988 0.660156 10.0999 0.660156 14.5599V25.4199C0.660156 29.8799 0.900156 30.3199 5.12016 33.1599L15.4602 39.1399C16.4602 39.7199 17.7402 39.9999 19.0002 39.9999C20.2602 39.9999 21.5402 39.7199 22.5202 39.1399L32.9602 33.1199C37.1002 30.3199 37.3402 29.8999 37.3402 25.4399V14.5599C37.3402 10.0999 37.1002 9.67988 32.8802 6.83988ZM19.0002 26.4999C15.4202 26.4999 12.5002 23.5799 12.5002 19.9999C12.5002 16.4199 15.4202 13.4999 19.0002 13.4999C22.5802 13.4999 25.5002 16.4199 25.5002 19.9999C25.5002 23.5799 22.5802 26.4999 19.0002 26.4999Z" fill="white"/>
</g>
</g>
</svg>
