<svg width="25" height="25" viewBox="0 0 25 25" fill="none" xmlns="http://www.w3.org/2000/svg">
<g id="vuesax/bulk/setting-2">
<g id="setting-2">
<path id="Vector" opacity="0.4" d="M2.96289 13.3799V11.6199C2.96289 10.5799 3.8123 9.71994 4.86157 9.71994C6.67032 9.71994 7.4098 8.43994 6.50043 6.86994C5.98079 5.96994 6.29058 4.79994 7.19995 4.27994L8.92875 3.28994C9.7182 2.81994 10.7375 3.09994 11.2072 3.88994L11.3171 4.07994C12.2165 5.64994 13.6954 5.64994 14.6048 4.07994L14.7147 3.88994C15.1844 3.09994 16.2037 2.81994 16.9931 3.28994L18.7219 4.27994C19.6313 4.79994 19.9411 5.96994 19.4215 6.86994C18.5121 8.43994 19.2516 9.71994 21.0603 9.71994C22.0996 9.71994 22.959 10.5699 22.959 11.6199V13.3799C22.959 14.4199 22.1096 15.2799 21.0603 15.2799C19.2516 15.2799 18.5121 16.5599 19.4215 18.1299C19.9411 19.0399 19.6313 20.1999 18.7219 20.7199L16.9931 21.7099C16.2037 22.1799 15.1844 21.8999 14.7147 21.1099L14.6048 20.9199C13.7054 19.3499 12.2265 19.3499 11.3171 20.9199L11.2072 21.1099C10.7375 21.8999 9.7182 22.1799 8.92875 21.7099L7.19995 20.7199C6.29058 20.1999 5.98079 19.0299 6.50043 18.1299C7.4098 16.5599 6.67032 15.2799 4.86157 15.2799C3.8123 15.2799 2.96289 14.4199 2.96289 13.3799Z" fill="url(#paint0_linear_2640_3777)"/>
<path id="Vector_2" d="M12.9567 15.75C14.7504 15.75 16.2045 14.2949 16.2045 12.5C16.2045 10.7051 14.7504 9.25 12.9567 9.25C11.163 9.25 9.70898 10.7051 9.70898 12.5C9.70898 14.2949 11.163 15.75 12.9567 15.75Z" fill="url(#paint1_linear_2640_3777)"/>
</g>
</g>
<defs>
<linearGradient id="paint0_linear_2640_3777" x1="12.9609" y1="3.06104" x2="12.9609" y2="21.9388" gradientUnits="userSpaceOnUse">
<stop stop-color="#FF7612"/>
<stop offset="1" stop-color="#FF001F"/>
</linearGradient>
<linearGradient id="paint1_linear_2640_3777" x1="12.9567" y1="9.25" x2="12.9567" y2="15.75" gradientUnits="userSpaceOnUse">
<stop stop-color="#FF7612"/>
<stop offset="1" stop-color="#FF001F"/>
</linearGradient>
</defs>
</svg>
