<svg width="42" height="43" viewBox="0 0 42 43" fill="none" xmlns="http://www.w3.org/2000/svg">
<g id="vuesax/bold/shop">
<g id="shop">
<path id="Vector" d="M41.7193 14.54L41.1393 9C40.2993 2.96 37.5593 0.5 31.6993 0.5H26.9793H24.0193H17.9393H14.9793H10.1793C4.2993 0.5 1.5793 2.96 0.7193 9.06L0.1793 14.56C-0.0207001 16.7 0.5593 18.78 1.8193 20.4C3.3393 22.38 5.6793 23.5 8.2793 23.5C10.7993 23.5 13.2193 22.24 14.7393 20.22C16.0993 22.24 18.4193 23.5 20.9993 23.5C23.5793 23.5 25.8393 22.3 27.2193 20.3C28.7593 22.28 31.1393 23.5 33.6193 23.5C36.2793 23.5 38.6793 22.32 40.1793 20.24C41.3793 18.64 41.9193 16.62 41.7193 14.54Z" fill="white"/>
<path id="Vector_2" d="M19.6983 31.3205C17.1583 31.5805 15.2383 33.7405 15.2383 36.3005V41.7805C15.2383 42.3205 15.6783 42.7605 16.2183 42.7605H25.7583C26.2983 42.7605 26.7383 42.3205 26.7383 41.7805V37.0005C26.7583 32.8205 24.2983 30.8405 19.6983 31.3205Z" fill="white"/>
<path id="Vector_3" d="M39.7417 26.8002V32.7602C39.7417 38.2802 35.2617 42.7602 29.7417 42.7602C29.2017 42.7602 28.7617 42.3202 28.7617 41.7802V37.0002C28.7617 34.4402 27.9817 32.4402 26.4617 31.0802C25.1217 29.8602 23.3017 29.2602 21.0417 29.2602C20.5417 29.2602 20.0417 29.2802 19.5017 29.3402C15.9417 29.7002 13.2417 32.7002 13.2417 36.3002V41.7802C13.2417 42.3202 12.8017 42.7602 12.2617 42.7602C6.74172 42.7602 2.26172 38.2802 2.26172 32.7602V26.8402C2.26172 25.4402 3.64172 24.5002 4.94172 24.9602C5.48172 25.1402 6.02172 25.2802 6.58172 25.3602C6.82172 25.4002 7.08172 25.4402 7.32172 25.4402C7.64172 25.4802 7.96172 25.5002 8.28172 25.5002C10.6017 25.5002 12.8817 24.6402 14.6817 23.1602C16.4017 24.6402 18.6417 25.5002 21.0017 25.5002C23.3817 25.5002 25.5817 24.6802 27.3017 23.2002C29.1017 24.6602 31.3417 25.5002 33.6217 25.5002C33.9817 25.5002 34.3417 25.4802 34.6817 25.4402C34.9217 25.4202 35.1417 25.4002 35.3617 25.3602C35.9817 25.2802 36.5417 25.1002 37.1017 24.9202C38.4017 24.4802 39.7417 25.4402 39.7417 26.8002Z" fill="white"/>
</g>
</g>
</svg>
