<svg width="58" height="58" viewBox="0 0 58 58" fill="none" xmlns="http://www.w3.org/2000/svg">
<g id="vuesax/bold/shop">
<g id="shop">
<path id="Vector" d="M53.8641 20.048L53.1681 13.4C52.1601 6.15201 48.8721 3.20001 41.8401 3.20001H36.1761H32.6241H25.3281H21.7761H16.0161C8.96014 3.20001 5.69614 6.15201 4.66414 13.472L4.01614 20.072C3.77614 22.64 4.47214 25.136 5.98414 27.08C7.80814 29.456 10.6161 30.8 13.7361 30.8C16.7601 30.8 19.6641 29.288 21.4881 26.864C23.1201 29.288 25.9041 30.8 29.0001 30.8C32.0961 30.8 34.8081 29.36 36.4641 26.96C38.3121 29.336 41.1681 30.8 44.1441 30.8C47.3361 30.8 50.2161 29.384 52.0161 26.888C53.4561 24.968 54.1041 22.544 53.8641 20.048Z" fill="#505050"/>
<path id="Vector_2" d="M27.4404 40.184C24.3924 40.496 22.0884 43.088 22.0884 46.16V52.736C22.0884 53.384 22.6164 53.912 23.2644 53.912H34.7124C35.3604 53.912 35.8884 53.384 35.8884 52.736V47C35.9124 41.984 32.9604 39.608 27.4404 40.184Z" fill="#8B96A5"/>
<path id="Vector_3" d="M51.4882 34.76V41.912C51.4882 48.536 46.1122 53.912 39.4882 53.912C38.8402 53.912 38.3122 53.384 38.3122 52.736V47C38.3122 43.928 37.3762 41.528 35.5522 39.896C33.9442 38.432 31.7602 37.712 29.0482 37.712C28.4482 37.712 27.8482 37.736 27.2002 37.808C22.9282 38.24 19.6882 41.84 19.6882 46.16V52.736C19.6882 53.384 19.1602 53.912 18.5122 53.912C11.8882 53.912 6.51221 48.536 6.51221 41.912V34.808C6.51221 33.128 8.16821 32 9.72821 32.552C10.3762 32.768 11.0242 32.936 11.6962 33.032C11.9842 33.08 12.2962 33.128 12.5842 33.128C12.9682 33.176 13.3522 33.2 13.7362 33.2C16.5202 33.2 19.2562 32.168 21.4162 30.392C23.4802 32.168 26.1682 33.2 29.0002 33.2C31.8562 33.2 34.4962 32.216 36.5602 30.44C38.7202 32.192 41.4082 33.2 44.1442 33.2C44.5762 33.2 45.0082 33.176 45.4162 33.128C45.7042 33.104 45.9682 33.08 46.2322 33.032C46.9762 32.936 47.6482 32.72 48.3202 32.504C49.8802 31.976 51.4882 33.128 51.4882 34.76Z" fill="#8B96A5"/>
</g>
</g>
</svg>
