<svg width="31" height="30" viewBox="0 0 31 30" fill="none" xmlns="http://www.w3.org/2000/svg">
<path d="M4.66602 14.0249V19.6374C4.66602 25.2499 6.91445 27.4999 12.5231 27.4999H19.2559C24.8645 27.4999 27.1129 25.2499 27.1129 19.6374V14.0249" stroke="#8B96A5" stroke-width="1.5" stroke-linecap="round" stroke-linejoin="round"/>
<path d="M15.8974 15C18.1833 15 19.8696 13.1375 19.6448 10.85L18.8204 2.5H12.9869L12.15 10.85C11.9252 13.1375 13.6115 15 15.8974 15Z" stroke="#8B96A5" stroke-width="1.5" stroke-linecap="round" stroke-linejoin="round"/>
<path d="M23.7805 15C26.3038 15 28.1525 12.95 27.9027 10.4375L27.5529 7C27.1032 3.75 25.8541 2.5 22.5814 2.5H18.7715L19.6459 11.2625C19.8582 13.325 21.7194 15 23.7805 15Z" stroke="#8B96A5" stroke-width="1.5" stroke-linecap="round" stroke-linejoin="round"/>
<path d="M7.95235 15C10.0134 15 11.8746 13.325 12.0745 11.2625L12.3493 8.5L12.9489 2.5H9.13902C5.86631 2.5 4.61718 3.75 4.1675 7L3.83023 10.4375C3.58041 12.95 5.42911 15 7.95235 15Z" stroke="#8B96A5" stroke-width="1.5" stroke-linecap="round" stroke-linejoin="round"/>
<path d="M15.8972 21.25C13.8112 21.25 12.7744 22.2875 12.7744 24.375V27.5H19.02V24.375C19.02 22.2875 17.9832 21.25 15.8972 21.25Z" stroke="#8B96A5" stroke-width="1.5" stroke-linecap="round" stroke-linejoin="round"/>
</svg>
