<svg width="216" height="41" viewBox="0 0 216 41" fill="none" xmlns="http://www.w3.org/2000/svg">
<g id="Group 1505">
<path id="Rectangle 503" d="M0.1875 6.37793C0.1875 3.06422 2.87379 0.37793 6.1875 0.37793H209.188C212.501 0.37793 215.188 3.06422 215.188 6.37793V34.3779C215.188 37.6916 212.501 40.3779 209.188 40.3779H6.1875C2.87379 40.3779 0.1875 37.6916 0.1875 34.3779V6.37793Z" fill="white"/>
<path id="Rectangle 503 (Stroke)" fill-rule="evenodd" clip-rule="evenodd" d="M0.0390625 6.37754C0.0390625 2.98099 2.79251 0.227539 6.18906 0.227539H209.189C212.586 0.227539 215.339 2.98099 215.339 6.37754V34.3775C215.339 37.7741 212.586 40.5275 209.189 40.5275H6.18906C2.79251 40.5275 0.0390625 37.7741 0.0390625 34.3775V6.37754ZM6.18906 0.527539C2.9582 0.527539 0.339063 3.14667 0.339063 6.37754V34.3775C0.339063 37.6084 2.95819 40.2275 6.18906 40.2275H209.189C212.42 40.2275 215.039 37.6084 215.039 34.3775V6.37754C215.039 3.14667 212.42 0.527539 209.189 0.527539H6.18906Z" fill="#BDC4CD"/>
<g id="Group 1503">
<g id="Group 1504">
<g id="gallery-edit">
<path id="Vector (Stroke)" fill-rule="evenodd" clip-rule="evenodd" d="M29.1705 13.8779C28.3432 13.8779 27.6719 14.5492 27.6719 15.3779C27.6719 16.2067 28.3432 16.8779 29.1705 16.8779C29.9978 16.8779 30.6691 16.2067 30.6691 15.3779C30.6691 14.5492 29.9978 13.8779 29.1705 13.8779ZM26.6719 15.3779C26.6719 13.9975 27.7902 12.8779 29.1705 12.8779C30.5508 12.8779 31.6691 13.9975 31.6691 15.3779C31.6691 16.7583 30.5508 17.8779 29.1705 17.8779C27.7902 17.8779 26.6719 16.7583 26.6719 15.3779Z" fill="url(#paint0_linear_3193_10955)"/>
<path id="Vector (Stroke)_2" fill-rule="evenodd" clip-rule="evenodd" d="M23.446 10.6495C24.7098 9.38476 26.6233 8.87793 29.1709 8.87793H33.1681C33.4443 8.87793 33.6681 9.10179 33.6681 9.37793C33.6681 9.65407 33.4443 9.87793 33.1681 9.87793H29.1709C26.722 9.87793 25.1379 10.3711 24.1533 11.3564C23.1687 12.3417 22.6758 13.9272 22.6758 16.3779V22.3779C22.6758 24.8287 23.1687 26.4142 24.1533 27.3995C25.1379 28.3848 26.722 28.8779 29.1709 28.8779H35.1668C37.6156 28.8779 39.1998 28.3848 40.1844 27.3995C41.169 26.4142 41.6619 24.8287 41.6619 22.3779V17.3779C41.6619 17.1018 41.8858 16.8779 42.1619 16.8779C42.438 16.8779 42.6619 17.1018 42.6619 17.3779V22.3779C42.6619 24.9272 42.1555 26.8417 40.8917 28.1064C39.6278 29.3711 37.7144 29.8779 35.1668 29.8779H29.1709C26.6233 29.8779 24.7098 29.3711 23.446 28.1064C22.1822 26.8417 21.6758 24.9272 21.6758 22.3779V16.3779C21.6758 13.8287 22.1822 11.9142 23.446 10.6495Z" fill="url(#paint1_linear_3193_10955)"/>
<path id="Vector (Stroke)_3" fill-rule="evenodd" clip-rule="evenodd" d="M40.2825 8.88724C40.8592 8.83146 41.4106 9.09415 41.9369 9.62619C42.459 10.149 42.7164 10.6976 42.6608 11.2707C42.6078 11.818 42.2786 12.2593 41.936 12.6021L38.3085 16.2321C38.1846 16.3561 38.0257 16.4527 37.8864 16.5201C37.7453 16.5883 37.5801 16.6478 37.4233 16.6725L37.4165 16.6736L37.4165 16.6736L36.0275 16.8736L36.0256 16.8738C35.6432 16.9274 35.2667 16.8235 34.9992 16.5559C34.7318 16.2883 34.6281 15.9117 34.6816 15.5294L34.6819 15.5275L34.6819 15.5275L34.8804 14.1465C34.9002 13.9699 34.9648 13.7968 35.0343 13.6577C35.1063 13.5136 35.2051 13.3629 35.3227 13.2452L38.9502 9.61524L39.1999 9.86473L38.9502 9.61524C39.2912 9.27398 39.7327 8.94044 40.2825 8.88724ZM40.3788 9.8826C40.1792 9.90191 39.9461 10.0334 39.6576 10.3221L36.0301 13.9521C36.0078 13.9744 35.9668 14.0287 35.9288 14.1047C35.89 14.1823 35.8761 14.2393 35.8741 14.2584C35.8734 14.2656 35.8726 14.2727 35.8715 14.2798L35.6719 15.6679C35.6719 15.6682 35.6719 15.6685 35.6718 15.6687C35.6556 15.7858 35.6917 15.8341 35.7066 15.849C35.7214 15.8638 35.7694 15.8998 35.8861 15.8836C35.8863 15.8836 35.8866 15.8835 35.8869 15.8835L37.2695 15.6844C37.3035 15.6786 37.3717 15.6582 37.4511 15.6198C37.5342 15.5796 37.5852 15.5412 37.6012 15.5252L41.2286 11.8952C41.5156 11.6081 41.6461 11.3743 41.6655 11.1742C41.6824 11.0001 41.6253 10.729 41.2286 10.3321L41.2268 10.3302L41.2268 10.3302C40.824 9.92288 40.5513 9.86591 40.3788 9.8826Z" fill="url(#paint2_linear_3193_10955)"/>
<path id="Vector (Stroke)_4" fill-rule="evenodd" clip-rule="evenodd" d="M38.6458 10.0071C38.9116 9.93227 39.1878 10.0871 39.2627 10.3529C39.5253 11.2855 40.2539 12.0145 41.1855 12.2772C41.4513 12.3521 41.606 12.6283 41.531 12.8941C41.4561 13.1599 41.1799 13.3146 40.9141 13.2396C39.6472 12.8824 38.657 11.8913 38.3001 10.6239C38.2252 10.3581 38.38 10.082 38.6458 10.0071Z" fill="url(#paint3_linear_3193_10955)"/>
<path id="Vector (Stroke)_5" fill-rule="evenodd" clip-rule="evenodd" d="M40.2056 20.2576C39.6136 19.7488 38.6314 19.7488 38.0394 20.2576L38.0392 20.2578L33.8823 23.8276C33.8822 23.8277 33.8822 23.8278 33.8821 23.8278C32.9152 24.6588 31.3792 24.6587 30.4124 23.8276L30.4081 23.824L30.4081 23.8239L30.0806 23.5359C29.5456 23.0777 28.6558 23.0264 28.0492 23.4335C28.0492 23.4335 28.0491 23.4336 28.0491 23.4336L23.1226 26.7435C22.8934 26.8975 22.5828 26.8365 22.4288 26.6073C22.2748 26.3781 22.3357 26.0675 22.565 25.9135L27.4915 22.6035L27.4917 22.6034C28.4633 21.9511 29.8503 22.0192 30.7345 22.7793L30.7388 22.783L30.7387 22.783L31.0662 23.071C31.6584 23.5782 32.6391 23.5776 33.2304 23.0693L33.2306 23.0692L37.3875 19.4993C37.3876 19.4993 37.3877 19.4992 37.3877 19.4992C38.3546 18.6682 39.8906 18.6683 40.8574 19.4993C40.8574 19.4993 40.8574 19.4993 40.8574 19.4993L42.4863 20.8993C42.6957 21.0793 42.7196 21.395 42.5396 21.6044C42.3596 21.8138 42.0439 21.8377 41.8345 21.6577L40.2056 20.2577L40.2056 20.2576Z" fill="url(#paint4_linear_3193_10955)"/>
</g>
<g id="Upload a cover picture">
<path d="M57.0685 14.1961H58.3015V20.9376C58.3015 21.6336 58.1374 22.2551 57.8093 22.8019C57.4845 23.3455 57.0255 23.7747 56.4322 24.0896C55.8389 24.4011 55.1429 24.5569 54.3441 24.5569C53.5453 24.5569 52.8493 24.4011 52.256 24.0896C51.6628 23.7747 51.2021 23.3455 50.8739 22.8019C50.5491 22.2551 50.3867 21.6336 50.3867 20.9376V14.1961H51.6197V20.8382C51.6197 21.3353 51.729 21.7778 51.9478 22.1656C52.1665 22.55 52.4781 22.8533 52.8825 23.0754C53.2901 23.2941 53.7773 23.4035 54.3441 23.4035C54.9109 23.4035 55.3981 23.2941 55.8058 23.0754C56.2134 22.8533 56.525 22.55 56.7404 22.1656C56.9592 21.7778 57.0685 21.3353 57.0685 20.8382V14.1961Z" fill="#505050"/>
<path d="M60.4046 27.2416V16.7416H61.5381V17.9546H61.6773C61.7635 17.8221 61.8828 17.653 62.0353 17.4475C62.191 17.2387 62.4131 17.0531 62.7015 16.8907C62.9931 16.725 63.3875 16.6421 63.8847 16.6421C64.5277 16.6421 65.0944 16.8029 65.585 17.1244C66.0755 17.4459 66.4583 17.9016 66.7334 18.4916C67.0085 19.0815 67.1461 19.7776 67.1461 20.5796C67.1461 21.3883 67.0085 22.0893 66.7334 22.6826C66.4583 23.2726 66.0772 23.73 65.5899 24.0548C65.1027 24.3763 64.5409 24.537 63.9046 24.537C63.4141 24.537 63.0213 24.4558 62.7263 24.2934C62.4313 24.1277 62.2043 23.9404 62.0452 23.7316C61.8861 23.5195 61.7635 23.3438 61.6773 23.2046H61.5779V27.2416H60.4046ZM61.558 20.5597C61.558 21.1365 61.6425 21.6452 61.8115 22.086C61.9806 22.5235 62.2275 22.8666 62.5523 23.1151C62.8771 23.3604 63.2748 23.483 63.7455 23.483C64.236 23.483 64.6453 23.3538 64.9735 23.0953C65.3049 22.8334 65.5535 22.4821 65.7192 22.0413C65.8882 21.5972 65.9728 21.1033 65.9728 20.5597C65.9728 20.0228 65.8899 19.5389 65.7242 19.108C65.5618 18.6739 65.3149 18.3308 64.9834 18.0789C64.6553 17.8237 64.2426 17.6961 63.7455 17.6961C63.2682 17.6961 62.8672 17.8171 62.5424 18.059C62.2176 18.2977 61.9723 18.6324 61.8066 19.0633C61.6408 19.4909 61.558 19.9897 61.558 20.5597Z" fill="#505050"/>
<path d="M69.9091 14.1961V24.3779H68.7358V14.1961H69.9091Z" fill="#505050"/>
<path d="M74.9604 24.537C74.271 24.537 73.6661 24.373 73.1457 24.0448C72.6287 23.7167 72.2243 23.2577 71.9327 22.6677C71.6443 22.0777 71.5001 21.3883 71.5001 20.5995C71.5001 19.8041 71.6443 19.1097 71.9327 18.5164C72.2243 17.9231 72.6287 17.4624 73.1457 17.1343C73.6661 16.8062 74.271 16.6421 74.9604 16.6421C75.6498 16.6421 76.253 16.8062 76.77 17.1343C77.2904 17.4624 77.6947 17.9231 77.9831 18.5164C78.2748 19.1097 78.4206 19.8041 78.4206 20.5995C78.4206 21.3883 78.2748 22.0777 77.9831 22.6677C77.6947 23.2577 77.2904 23.7167 76.77 24.0448C76.253 24.373 75.6498 24.537 74.9604 24.537ZM74.9604 23.483C75.484 23.483 75.9149 23.3488 76.253 23.0803C76.5911 22.8119 76.8413 22.4589 77.0037 22.0214C77.1661 21.5839 77.2473 21.1099 77.2473 20.5995C77.2473 20.0891 77.1661 19.6135 77.0037 19.1727C76.8413 18.7319 76.5911 18.3756 76.253 18.1038C75.9149 17.832 75.484 17.6961 74.9604 17.6961C74.4367 17.6961 74.0058 17.832 73.6678 18.1038C73.3297 18.3756 73.0795 18.7319 72.917 19.1727C72.7546 19.6135 72.6734 20.0891 72.6734 20.5995C72.6734 21.1099 72.7546 21.5839 72.917 22.0214C73.0795 22.4589 73.3297 22.8119 73.6678 23.0803C74.0058 23.3488 74.4367 23.483 74.9604 23.483Z" fill="#505050"/>
<path d="M82.2588 24.5569C81.7749 24.5569 81.3357 24.4658 80.9413 24.2835C80.5469 24.0979 80.2337 23.8311 80.0017 23.483C79.7697 23.1317 79.6537 22.7075 79.6537 22.2103C79.6537 21.7728 79.7398 21.4182 79.9122 21.1464C80.0845 20.8713 80.3149 20.6559 80.6032 20.5001C80.8916 20.3443 81.2098 20.2283 81.5578 20.1521C81.9091 20.0725 82.2621 20.0096 82.6167 19.9632C83.0807 19.9035 83.4569 19.8588 83.7453 19.8289C84.0369 19.7958 84.2491 19.7411 84.3816 19.6649C84.5175 19.5886 84.5855 19.4561 84.5855 19.2671V19.2274C84.5855 18.7368 84.4512 18.3557 84.1828 18.0839C83.9176 17.8121 83.5149 17.6762 82.9747 17.6762C82.4145 17.6762 81.9754 17.7989 81.6572 18.0441C81.339 18.2894 81.1153 18.5512 80.986 18.8296L79.8724 18.4319C80.0713 17.9679 80.3364 17.6066 80.6679 17.3481C81.0026 17.0863 81.3672 16.904 81.7616 16.8012C82.1593 16.6952 82.5504 16.6421 82.9349 16.6421C83.1802 16.6421 83.4619 16.672 83.7801 16.7316C84.1016 16.788 84.4115 16.9056 84.7098 17.0846C85.0114 17.2636 85.2616 17.5337 85.4605 17.895C85.6593 18.2562 85.7588 18.7401 85.7588 19.3467V24.3779H84.5855V23.3438H84.5258C84.4463 23.5096 84.3137 23.6869 84.1281 23.8758C83.9425 24.0647 83.6956 24.2255 83.3873 24.358C83.0791 24.4906 82.7029 24.5569 82.2588 24.5569ZM82.4377 23.5029C82.9018 23.5029 83.2929 23.4118 83.611 23.2295C83.9325 23.0472 84.1745 22.8119 84.3369 22.5235C84.5026 22.2352 84.5855 21.9319 84.5855 21.6137V20.5399C84.5358 20.5995 84.4264 20.6542 84.2574 20.7039C84.0916 20.7503 83.8994 20.7918 83.6806 20.8282C83.4652 20.8614 83.2547 20.8912 83.0493 20.9177C82.8471 20.9409 82.683 20.9608 82.5571 20.9774C82.2521 21.0171 81.9671 21.0818 81.702 21.1713C81.4401 21.2574 81.228 21.3883 81.0656 21.564C80.9065 21.7364 80.827 21.9717 80.827 22.27C80.827 22.6776 80.9778 22.9859 81.2794 23.1947C81.5843 23.4002 81.9704 23.5029 82.4377 23.5029Z" fill="#505050"/>
<path d="M90.5838 24.537C89.9474 24.537 89.3857 24.3763 88.8984 24.0548C88.4112 23.73 88.0301 23.2726 87.755 22.6826C87.4799 22.0893 87.3423 21.3883 87.3423 20.5796C87.3423 19.7776 87.4799 19.0815 87.755 18.4916C88.0301 17.9016 88.4129 17.4459 88.9034 17.1244C89.3939 16.8029 89.9607 16.6421 90.6037 16.6421C91.1008 16.6421 91.4936 16.725 91.782 16.8907C92.0736 17.0531 92.2957 17.2387 92.4482 17.4475C92.6039 17.653 92.7249 17.8221 92.8111 17.9546H92.9105V14.1961H94.0838V24.3779H92.9503V23.2046H92.8111C92.7249 23.3438 92.6023 23.5195 92.4432 23.7316C92.2841 23.9404 92.0571 24.1277 91.7621 24.2934C91.4671 24.4558 91.0743 24.537 90.5838 24.537ZM90.7429 23.483C91.2135 23.483 91.6113 23.3604 91.9361 23.1151C92.2609 22.8666 92.5078 22.5235 92.6768 22.086C92.8459 21.6452 92.9304 21.1365 92.9304 20.5597C92.9304 19.9897 92.8475 19.4909 92.6818 19.0633C92.5161 18.6324 92.2708 18.2977 91.946 18.059C91.6212 17.8171 91.2202 17.6961 90.7429 17.6961C90.2457 17.6961 89.8314 17.8237 89.5 18.0789C89.1719 18.3308 88.9249 18.6739 88.7592 19.108C88.5968 19.5389 88.5156 20.0228 88.5156 20.5597C88.5156 21.1033 88.5985 21.5972 88.7642 22.0413C88.9332 22.4821 89.1818 22.8334 89.5099 23.0953C89.8414 23.3538 90.2524 23.483 90.7429 23.483Z" fill="#505050"/>
<path d="M102.18 24.5569C101.696 24.5569 101.257 24.4658 100.863 24.2835C100.468 24.0979 100.155 23.8311 99.9231 23.483C99.6911 23.1317 99.5751 22.7075 99.5751 22.2103C99.5751 21.7728 99.6613 21.4182 99.8337 21.1464C100.006 20.8713 100.236 20.6559 100.525 20.5001C100.813 20.3443 101.131 20.2283 101.479 20.1521C101.831 20.0725 102.184 20.0096 102.538 19.9632C103.002 19.9035 103.378 19.8588 103.667 19.8289C103.958 19.7958 104.171 19.7411 104.303 19.6649C104.439 19.5886 104.507 19.4561 104.507 19.2671V19.2274C104.507 18.7368 104.373 18.3557 104.104 18.0839C103.839 17.8121 103.436 17.6762 102.896 17.6762C102.336 17.6762 101.897 17.7989 101.579 18.0441C101.261 18.2894 101.037 18.5512 100.908 18.8296L99.7939 18.4319C99.9928 17.9679 100.258 17.6066 100.589 17.3481C100.924 17.0863 101.289 16.904 101.683 16.8012C102.081 16.6952 102.472 16.6421 102.856 16.6421C103.102 16.6421 103.383 16.672 103.702 16.7316C104.023 16.788 104.333 16.9056 104.631 17.0846C104.933 17.2636 105.183 17.5337 105.382 17.895C105.581 18.2562 105.68 18.7401 105.68 19.3467V24.3779H104.507V23.3438H104.447C104.368 23.5096 104.235 23.6869 104.05 23.8758C103.864 24.0647 103.617 24.2255 103.309 24.358C103.001 24.4906 102.624 24.5569 102.18 24.5569ZM102.359 23.5029C102.823 23.5029 103.214 23.4118 103.533 23.2295C103.854 23.0472 104.096 22.8119 104.258 22.5235C104.424 22.2352 104.507 21.9319 104.507 21.6137V20.5399C104.457 20.5995 104.348 20.6542 104.179 20.7039C104.013 20.7503 103.821 20.7918 103.602 20.8282C103.387 20.8614 103.176 20.8912 102.971 20.9177C102.769 20.9409 102.604 20.9608 102.479 20.9774C102.174 21.0171 101.889 21.0818 101.623 21.1713C101.362 21.2574 101.149 21.3883 100.987 21.564C100.828 21.7364 100.748 21.9717 100.748 22.27C100.748 22.6776 100.899 22.9859 101.201 23.1947C101.506 23.4002 101.892 23.5029 102.359 23.5029Z" fill="#505050"/>
<path d="M114.462 24.537C113.746 24.537 113.129 24.368 112.612 24.0299C112.095 23.6919 111.697 23.2262 111.419 22.6329C111.141 22.0396 111.001 21.3618 111.001 20.5995C111.001 19.824 111.144 19.1395 111.429 18.5463C111.717 17.9497 112.118 17.484 112.632 17.1492C113.149 16.8112 113.752 16.6421 114.442 16.6421C114.979 16.6421 115.462 16.7416 115.893 16.9404C116.324 17.1393 116.677 17.4177 116.952 17.7757C117.227 18.1336 117.398 18.5512 117.464 19.0285H116.291C116.202 18.6805 116.003 18.3722 115.694 18.1038C115.39 17.832 114.979 17.6961 114.462 17.6961C114.004 17.6961 113.603 17.8154 113.258 18.0541C112.917 18.2894 112.65 18.6225 112.458 19.0534C112.269 19.4809 112.175 19.983 112.175 20.5597C112.175 21.1497 112.267 21.6634 112.453 22.1009C112.642 22.5384 112.907 22.8782 113.248 23.1201C113.593 23.3621 113.998 23.483 114.462 23.483C114.766 23.483 115.043 23.43 115.292 23.324C115.54 23.2179 115.751 23.0654 115.923 22.8666C116.096 22.6677 116.218 22.4291 116.291 22.1507H117.464C117.398 22.6014 117.234 23.0074 116.972 23.3687C116.714 23.7267 116.371 24.0117 115.943 24.2238C115.519 24.4326 115.025 24.537 114.462 24.537Z" fill="#505050"/>
<path d="M122.082 24.537C121.392 24.537 120.788 24.373 120.267 24.0448C119.75 23.7167 119.346 23.2577 119.054 22.6677C118.766 22.0777 118.622 21.3883 118.622 20.5995C118.622 19.8041 118.766 19.1097 119.054 18.5164C119.346 17.9231 119.75 17.4624 120.267 17.1343C120.788 16.8062 121.392 16.6421 122.082 16.6421C122.771 16.6421 123.374 16.8062 123.892 17.1343C124.412 17.4624 124.816 17.9231 125.105 18.5164C125.396 19.1097 125.542 19.8041 125.542 20.5995C125.542 21.3883 125.396 22.0777 125.105 22.6677C124.816 23.2577 124.412 23.7167 123.892 24.0448C123.374 24.373 122.771 24.537 122.082 24.537ZM122.082 23.483C122.606 23.483 123.036 23.3488 123.374 23.0803C123.713 22.8119 123.963 22.4589 124.125 22.0214C124.288 21.5839 124.369 21.1099 124.369 20.5995C124.369 20.0891 124.288 19.6135 124.125 19.1727C123.963 18.7319 123.713 18.3756 123.374 18.1038C123.036 17.832 122.606 17.6961 122.082 17.6961C121.558 17.6961 121.127 17.832 120.789 18.1038C120.451 18.3756 120.201 18.7319 120.039 19.1727C119.876 19.6135 119.795 20.0891 119.795 20.5995C119.795 21.1099 119.876 21.5839 120.039 22.0214C120.201 22.4589 120.451 22.8119 120.789 23.0803C121.127 23.3488 121.558 23.483 122.082 23.483Z" fill="#505050"/>
<path d="M133.104 16.7416L130.28 24.3779H129.087L126.263 16.7416H127.536L129.644 22.8268H129.723L131.831 16.7416H133.104Z" fill="#505050"/>
<path d="M137.381 24.537C136.645 24.537 136.01 24.3746 135.477 24.0498C134.946 23.7217 134.537 23.2643 134.249 22.6776C133.964 22.0877 133.821 21.4016 133.821 20.6194C133.821 19.8372 133.964 19.1478 134.249 18.5512C134.537 17.9513 134.938 17.484 135.452 17.1492C135.969 16.8112 136.572 16.6421 137.262 16.6421C137.659 16.6421 138.052 16.7084 138.44 16.841C138.828 16.9736 139.181 17.189 139.499 17.4873C139.817 17.7823 140.071 18.1734 140.259 18.6606C140.448 19.1478 140.543 19.7477 140.543 20.4603V20.9575H134.656V19.9433H139.35C139.35 19.5124 139.263 19.1279 139.091 18.7899C138.922 18.4518 138.68 18.185 138.365 17.9894C138.054 17.7939 137.686 17.6961 137.262 17.6961C136.794 17.6961 136.39 17.8121 136.049 18.0441C135.71 18.2728 135.45 18.5711 135.268 18.939C135.086 19.3069 134.995 19.7013 134.995 20.1222V20.7984C134.995 21.3751 135.094 21.864 135.293 22.265C135.495 22.6627 135.775 22.966 136.133 23.1748C136.491 23.3803 136.907 23.483 137.381 23.483C137.689 23.483 137.968 23.44 138.216 23.3538C138.468 23.2643 138.685 23.1317 138.867 22.9561C139.05 22.7771 139.191 22.555 139.29 22.2899L140.424 22.608C140.304 22.9925 140.104 23.3306 139.822 23.6222C139.54 23.9106 139.192 24.136 138.778 24.2984C138.364 24.4575 137.898 24.537 137.381 24.537Z" fill="#505050"/>
<path d="M142.128 24.3779V16.7416H143.261V17.895H143.341C143.48 17.5171 143.732 17.2106 144.096 16.9752C144.461 16.7399 144.872 16.6222 145.329 16.6222C145.416 16.6222 145.523 16.6239 145.652 16.6272C145.782 16.6305 145.88 16.6355 145.946 16.6421V17.8353C145.906 17.8254 145.815 17.8105 145.672 17.7906C145.533 17.7674 145.386 17.7558 145.23 17.7558C144.859 17.7558 144.527 17.8337 144.236 17.9894C143.947 18.1419 143.719 18.354 143.549 18.6258C143.384 18.8943 143.301 19.2008 143.301 19.5455V24.3779H142.128Z" fill="#505050"/>
<path d="M150.874 27.2416V16.7416H152.008V17.9546H152.147C152.233 17.8221 152.352 17.653 152.505 17.4475C152.661 17.2387 152.883 17.0531 153.171 16.8907C153.463 16.725 153.857 16.6421 154.354 16.6421C154.997 16.6421 155.564 16.8029 156.055 17.1244C156.545 17.4459 156.928 17.9016 157.203 18.4916C157.478 19.0815 157.616 19.7776 157.616 20.5796C157.616 21.3883 157.478 22.0893 157.203 22.6826C156.928 23.2726 156.547 23.73 156.059 24.0548C155.572 24.3763 155.01 24.537 154.374 24.537C153.884 24.537 153.491 24.4558 153.196 24.2934C152.901 24.1277 152.674 23.9404 152.515 23.7316C152.356 23.5195 152.233 23.3438 152.147 23.2046H152.047V27.2416H150.874ZM152.028 20.5597C152.028 21.1365 152.112 21.6452 152.281 22.086C152.45 22.5235 152.697 22.8666 153.022 23.1151C153.347 23.3604 153.744 23.483 154.215 23.483C154.706 23.483 155.115 23.3538 155.443 23.0953C155.774 22.8334 156.023 22.4821 156.189 22.0413C156.358 21.5972 156.442 21.1033 156.442 20.5597C156.442 20.0228 156.359 19.5389 156.194 19.108C156.031 18.6739 155.784 18.3308 155.453 18.0789C155.125 17.8237 154.712 17.6961 154.215 17.6961C153.738 17.6961 153.337 17.8171 153.012 18.059C152.687 18.2977 152.442 18.6324 152.276 19.0633C152.11 19.4909 152.028 19.9897 152.028 20.5597Z" fill="#505050"/>
<path d="M159.205 24.3779V16.7416H160.379V24.3779H159.205ZM159.802 15.4688C159.573 15.4688 159.376 15.391 159.21 15.2352C159.048 15.0794 158.967 14.8921 158.967 14.6734C158.967 14.4546 159.048 14.2674 159.21 14.1116C159.376 13.9558 159.573 13.8779 159.802 13.8779C160.031 13.8779 160.226 13.9558 160.389 14.1116C160.554 14.2674 160.637 14.4546 160.637 14.6734C160.637 14.8921 160.554 15.0794 160.389 15.2352C160.226 15.391 160.031 15.4688 159.802 15.4688Z" fill="#505050"/>
<path d="M165.43 24.537C164.714 24.537 164.098 24.368 163.58 24.0299C163.063 23.6919 162.666 23.2262 162.387 22.6329C162.109 22.0396 161.97 21.3618 161.97 20.5995C161.97 19.824 162.112 19.1395 162.397 18.5463C162.686 17.9497 163.087 17.484 163.6 17.1492C164.117 16.8112 164.721 16.6421 165.41 16.6421C165.947 16.6421 166.431 16.7416 166.862 16.9404C167.293 17.1393 167.646 17.4177 167.921 17.7757C168.196 18.1336 168.366 18.5512 168.433 19.0285H167.259C167.17 18.6805 166.971 18.3722 166.663 18.1038C166.358 17.832 165.947 17.6961 165.43 17.6961C164.973 17.6961 164.571 17.8154 164.227 18.0541C163.885 18.2894 163.619 18.6225 163.426 19.0534C163.237 19.4809 163.143 19.983 163.143 20.5597C163.143 21.1497 163.236 21.6634 163.421 22.1009C163.61 22.5384 163.875 22.8782 164.217 23.1201C164.562 23.3621 164.966 23.483 165.43 23.483C165.735 23.483 166.012 23.43 166.26 23.324C166.509 23.2179 166.719 23.0654 166.892 22.8666C167.064 22.6677 167.187 22.4291 167.259 22.1507H168.433C168.366 22.6014 168.202 23.0074 167.941 23.3687C167.682 23.7267 167.339 24.0117 166.911 24.2238C166.487 24.4326 165.993 24.537 165.43 24.537Z" fill="#505050"/>
<path d="M173.269 16.7416V17.7359H169.312V16.7416H173.269ZM170.465 14.912H171.638V22.1904C171.638 22.5219 171.686 22.7704 171.782 22.9362C171.882 23.0986 172.008 23.2079 172.16 23.2643C172.316 23.3173 172.48 23.3438 172.652 23.3438C172.782 23.3438 172.888 23.3372 172.971 23.324C173.054 23.3074 173.12 23.2941 173.17 23.2842L173.408 24.3382C173.329 24.368 173.218 24.3978 173.075 24.4276C172.933 24.4608 172.752 24.4774 172.533 24.4774C172.202 24.4774 171.877 24.4061 171.559 24.2636C171.244 24.1211 170.982 23.904 170.773 23.6123C170.568 23.3206 170.465 22.9527 170.465 22.5086V14.912Z" fill="#505050"/>
<path d="M179.646 21.2558V16.7416H180.82V24.3779H179.646V23.0853H179.567C179.388 23.4731 179.109 23.8029 178.732 24.0747C178.354 24.3431 177.876 24.4774 177.3 24.4774C176.823 24.4774 176.398 24.373 176.027 24.1642C175.656 23.952 175.364 23.6338 175.152 23.2096C174.94 22.782 174.834 22.2435 174.834 21.5938V16.7416H176.007V21.5143C176.007 22.0711 176.163 22.5152 176.474 22.8467C176.789 23.1781 177.19 23.3438 177.678 23.3438C177.969 23.3438 178.266 23.2693 178.568 23.1201C178.872 22.971 179.128 22.7423 179.333 22.434C179.542 22.1258 179.646 21.733 179.646 21.2558Z" fill="#505050"/>
<path d="M182.769 24.3779V16.7416H183.902V17.895H183.982C184.121 17.5171 184.373 17.2106 184.737 16.9752C185.102 16.7399 185.513 16.6222 185.97 16.6222C186.057 16.6222 186.164 16.6239 186.294 16.6272C186.423 16.6305 186.521 16.6355 186.587 16.6421V17.8353C186.547 17.8254 186.456 17.8105 186.313 17.7906C186.174 17.7674 186.027 17.7558 185.871 17.7558C185.5 17.7558 185.168 17.8337 184.877 17.9894C184.588 18.1419 184.36 18.354 184.191 18.6258C184.025 18.8943 183.942 19.2008 183.942 19.5455V24.3779H182.769Z" fill="#505050"/>
<path d="M190.747 24.537C190.011 24.537 189.376 24.3746 188.843 24.0498C188.312 23.7217 187.903 23.2643 187.615 22.6776C187.33 22.0877 187.187 21.4016 187.187 20.6194C187.187 19.8372 187.33 19.1478 187.615 18.5512C187.903 17.9513 188.304 17.484 188.818 17.1492C189.335 16.8112 189.938 16.6421 190.628 16.6421C191.025 16.6421 191.418 16.7084 191.806 16.841C192.194 16.9736 192.547 17.189 192.865 17.4873C193.183 17.7823 193.437 18.1734 193.625 18.6606C193.814 19.1478 193.909 19.7477 193.909 20.4603V20.9575H188.022V19.9433H192.716C192.716 19.5124 192.629 19.1279 192.457 18.7899C192.288 18.4518 192.046 18.185 191.731 17.9894C191.42 17.7939 191.052 17.6961 190.628 17.6961C190.16 17.6961 189.756 17.8121 189.415 18.0441C189.076 18.2728 188.816 18.5711 188.634 18.939C188.452 19.3069 188.361 19.7013 188.361 20.1222V20.7984C188.361 21.3751 188.46 21.864 188.659 22.265C188.861 22.6627 189.141 22.966 189.499 23.1748C189.857 23.3803 190.273 23.483 190.747 23.483C191.055 23.483 191.334 23.44 191.582 23.3538C191.834 23.2643 192.051 23.1317 192.233 22.9561C192.416 22.7771 192.557 22.555 192.656 22.2899L193.79 22.608C193.67 22.9925 193.47 23.3306 193.188 23.6222C192.906 23.9106 192.558 24.136 192.144 24.2984C191.73 24.4575 191.264 24.537 190.747 24.537Z" fill="#505050"/>
</g>
</g>
</g>
</g>
<defs>
<linearGradient id="paint0_linear_3193_10955" x1="29.1705" y1="12.8779" x2="29.1705" y2="17.8779" gradientUnits="userSpaceOnUse">
<stop stop-color="#FF7612"/>
<stop offset="1" stop-color="#FF001F"/>
</linearGradient>
<linearGradient id="paint1_linear_3193_10955" x1="32.1688" y1="8.87793" x2="32.1688" y2="29.8779" gradientUnits="userSpaceOnUse">
<stop stop-color="#FF7612"/>
<stop offset="1" stop-color="#FF001F"/>
</linearGradient>
<linearGradient id="paint2_linear_3193_10955" x1="38.6681" y1="8.87988" x2="38.6681" y2="16.8875" gradientUnits="userSpaceOnUse">
<stop stop-color="#FF7612"/>
<stop offset="1" stop-color="#FF001F"/>
</linearGradient>
<linearGradient id="paint3_linear_3193_10955" x1="39.9156" y1="9.98828" x2="39.9156" y2="13.2585" gradientUnits="userSpaceOnUse">
<stop stop-color="#FF7612"/>
<stop offset="1" stop-color="#FF001F"/>
</linearGradient>
<linearGradient id="paint4_linear_3193_10955" x1="32.5021" y1="18.876" x2="32.5021" y2="26.8285" gradientUnits="userSpaceOnUse">
<stop stop-color="#FF7612"/>
<stop offset="1" stop-color="#FF001F"/>
</linearGradient>
</defs>
</svg>
